<svg xmlns="http://www.w3.org/2000/svg" viewBox="0 0 96 96" width="96" height="96" role="img" aria-labelledby="t d">
  <title id="t">Reeve</title>
  <desc id="d">A shield seal with a stylised R — the mark for Reeve, an autonomous GitHub maintainer.</desc>
  <defs>
    <linearGradient id="shield" x1="6" y1="14" x2="86" y2="86" gradientUnits="userSpaceOnUse">
      <stop offset="0" stop-color="#34E0C8"/>
      <stop offset=".52" stop-color="#0EA5E9"/>
      <stop offset="1" stop-color="#4338CA"/>
    </linearGradient>
    <linearGradient id="rfill" x1="48" y1="26" x2="48" y2="70" gradientUnits="userSpaceOnUse">
      <stop offset="0" stop-color="#FFFFFF"/>
      <stop offset="1" stop-color="#D7E2EE"/>
    </linearGradient>
    <clipPath id="clip">
      <path d="M26 20 H70 Q78 20 78 28 V50 Q78 70 48 82 Q18 70 18 50 V28 Q18 20 26 20 Z"/>
    </clipPath>
    <filter id="lift" x="-25%" y="-25%" width="150%" height="150%">
      <feDropShadow dx="0" dy="2.5" stdDeviation="3" flood-color="#070B18" flood-opacity="0.45"/>
    </filter>
  </defs>

  <g filter="url(#lift)">
    <!-- shield body -->
    <path d="M26 20 H70 Q78 20 78 28 V50 Q78 70 48 82 Q18 70 18 50 V28 Q18 20 26 20 Z" fill="url(#shield)"/>
    <!-- top sheen + inner rim for depth -->
    <g clip-path="url(#clip)">
      <ellipse cx="48" cy="8" rx="44" ry="22" fill="#FFFFFF" opacity="0.16"/>
    </g>
    <path d="M26 20 H70 Q78 20 78 28 V50 Q78 70 48 82 Q18 70 18 50 V28 Q18 20 26 20 Z"
      fill="none" stroke="#FFFFFF" stroke-opacity="0.22" stroke-width="1.5"/>

    <!-- constructed R: stem + bowl (right half-ring, open counter) + leg -->
    <g fill="url(#rfill)">
      <rect x="34" y="30" width="11" height="38" rx="3"/>
      <path d="M45 27 A14.5 14.5 0 0 1 45 56 L45 48 A6.5 6.5 0 0 0 45 35 Z"/>
      <path d="M43 49 L53 49 L64 68 L54 68 Z"/>
    </g>
  </g>
</svg>
